# This file uses centimeters as units for non-parametric coordinates.

mtllib test_primsB_scaled.mtl
g default
v -69.043936 -94.683956 69.473378
v 82.358214 -94.683956 69.473378
v -69.043936 56.718194 69.473378
v 82.358214 56.718194 69.473378
v -69.043936 56.718194 -81.928771
v 82.358214 56.718194 -81.928771
v -69.043936 -94.683956 -81.928771
v 82.358214 -94.683956 -81.928771
vt 0.375000 0.000000
vt 0.625000 0.000000
vt 0.375000 0.250000
vt 0.625000 0.250000
vt 0.375000 0.500000
vt 0.625000 0.500000
vt 0.375000 0.750000
vt 0.625000 0.750000
vt 0.375000 1.000000
vt 0.625000 1.000000
vt 0.875000 0.000000
vt 0.875000 0.250000
vt 0.125000 0.000000
vt 0.125000 0.250000
vn 0.000000 0.000000 -1.000000
vn 0.000000 0.000000 -1.000000
vn 0.000000 0.000000 -1.000000
vn 0.000000 0.000000 -1.000000
vn 0.000000 -1.000000 0.000000
vn 0.000000 -1.000000 0.000000
vn 0.000000 -1.000000 0.000000
vn 0.000000 -1.000000 0.000000
vn 0.000000 0.000000 1.000000
vn 0.000000 0.000000 1.000000
vn 0.000000 0.000000 1.000000
vn 0.000000 0.000000 1.000000
vn 0.000000 1.000000 0.000000
vn 0.000000 1.000000 0.000000
vn 0.000000 1.000000 0.000000
vn 0.000000 1.000000 0.000000
vn -1.000000 0.000000 0.000000
vn -1.000000 0.000000 0.000000
vn -1.000000 0.000000 0.000000
vn -1.000000 0.000000 0.000000
vn 1.000000 0.000000 0.000000
vn 1.000000 0.000000 0.000000
vn 1.000000 0.000000 0.000000
vn 1.000000 0.000000 0.000000
s off
g pCube1
usemtl initialShadingGroup
f 1/1/1 3/3/2 4/4/3 2/2/4
f 3/3/5 5/5/6 6/6/7 4/4/8
f 5/5/9 7/7/10 8/8/11 6/6/12
f 7/7/13 1/9/14 2/10/15 8/8/16
f 2/2/17 4/4/18 6/12/19 8/11/20
f 7/13/21 5/14/22 3/3/23 1/1/24
g default
v -13.234853 56.098222 13.664295
v 26.549131 56.098222 13.664295
v -13.234853 56.098222 -26.119689
v 26.549131 56.098222 -26.119689
vt 0.000000 0.000000
vt 1.000000 0.000000
vt 0.000000 1.000000
vt 1.000000 1.000000
vn 0.000000 -1.000000 0.000000
vn 0.000000 -1.000000 0.000000
vn 0.000000 -1.000000 0.000000
vn 0.000000 -1.000000 0.000000
s off
g pPlane1
usemtl lambert2SG
f 9/15/25 11/17/26 12/18/27 10/16/28
g default
v -64.230057 -27.335200 64.658245
v -50.052618 -27.335200 64.658245
v -35.875180 -27.335200 64.658245
v -21.697738 -27.335200 64.658245
v -7.520299 -27.335200 64.658245
v 6.657139 -27.335200 64.658245
v 20.834582 -27.335200 64.658245
v 35.012016 -27.335200 64.658245
v 49.189458 -27.335200 64.658245
v 63.366901 -27.335200 64.658245
v 77.544335 -27.335200 64.658245
v -64.230057 -27.335200 50.480807
v -50.052618 -27.335200 50.480807
v -35.875180 -27.335200 50.480807
v -21.697738 -27.335200 50.480807
v -7.520299 -27.335200 50.480807
v 6.657139 -27.335200 50.480807
v 20.834582 -27.335200 50.480807
v 35.012016 -27.335200 50.480807
v 49.189458 -27.335200 50.480807
v 63.366901 -27.335200 50.480807
v 77.544335 -27.335200 50.480807
v -64.230057 -27.335200 36.303369
v -50.052618 -27.335200 36.303369
v -35.875180 -27.335200 36.303369
v -21.697738 -27.335200 36.303369
v -7.520299 -27.335200 36.303369
v 6.657139 -27.335200 36.303369
v 20.834582 -27.335200 36.303369
v 35.012016 -27.335200 36.303369
v 49.189458 -27.335200 36.303369
v 63.366901 -27.335200 36.303369
v 77.544335 -27.335200 36.303369
v -64.230057 -27.335200 22.125926
v -50.052618 -27.335200 22.125926
v -35.875180 -27.335200 22.125926
v -21.697738 -27.335200 22.125926
v -7.520299 -27.335200 22.125926
v 6.657139 -27.335200 22.125926
v 20.834582 -27.335200 22.125926
v 35.012016 -27.335200 22.125926
v 49.189458 -27.335200 22.125926
v 63.366901 -27.335200 22.125926
v 77.544335 -27.335200 22.125926
v -64.230057 -27.335200 7.948488
v -50.052618 -27.335200 7.948488
v -35.875180 -27.335200 7.948488
v -21.697738 -27.335200 7.948488
v -7.520299 -27.335200 7.948488
v 6.657139 -27.335200 7.948488
v 20.834582 -27.335200 7.948488
v 35.012016 -27.335200 7.948488
v 49.189458 -27.335200 7.948488
v 63.366901 -27.335200 7.948488
v 77.544335 -27.335200 7.948488
v -64.230057 -27.335200 -6.228950
v -50.052618 -27.335200 -6.228950
v -35.875180 -27.335200 -6.228950
v -21.697738 -27.335200 -6.228950
v -7.520299 -27.335200 -6.228950
v 6.657139 -27.335200 -6.228950
v 20.834582 -27.335200 -6.228950
v 35.012016 -27.335200 -6.228950
v 49.189458 -27.335200 -6.228950
v 63.366901 -27.335200 -6.228950
v 77.544335 -27.335200 -6.228950
v -64.230057 -27.335200 -20.406393
v -50.052618 -27.335200 -20.406393
v -35.875180 -27.335200 -20.406393
v -21.697738 -27.335200 -20.406393
v -7.520299 -27.335200 -20.406393
v 6.657139 -27.335200 -20.406393
v 20.834582 -27.335200 -20.406393
v 35.012016 -27.335200 -20.406393
v 49.189458 -27.335200 -20.406393
v 63.366901 -27.335200 -20.406393
v 77.544335 -27.335200 -20.406393
v -64.230057 -27.335200 -34.583827
v -50.052618 -27.335200 -34.583827
v -35.875180 -27.335200 -34.583827
v -21.697738 -27.335200 -34.583827
v -7.520299 -27.335200 -34.583827
v 6.657139 -27.335200 -34.583827
v 20.834582 -27.335200 -34.583827
v 35.012016 -27.335200 -34.583827
v 49.189458 -27.335200 -34.583827
v 63.366901 -27.335200 -34.583827
v 77.544335 -27.335200 -34.583827
v -64.230057 -27.335200 -48.761269
v -50.052618 -27.335200 -48.761269
v -35.875180 -27.335200 -48.761269
v -21.697738 -27.335200 -48.761269
v -7.520299 -27.335200 -48.761269
v 6.657139 -27.335200 -48.761269
v 20.834582 -27.335200 -48.761269
v 35.012016 -27.335200 -48.761269
v 49.189458 -27.335200 -48.761269
v 63.366901 -27.335200 -48.761269
v 77.544335 -27.335200 -48.761269
v -64.230057 -27.335200 -62.938712
v -50.052618 -27.335200 -62.938712
v -35.875180 -27.335200 -62.938712
v -21.697738 -27.335200 -62.938712
v -7.520299 -27.335200 -62.938712
v 6.657139 -27.335200 -62.938712
v 20.834582 -27.335200 -62.938712
v 35.012016 -27.335200 -62.938712
v 49.189458 -27.335200 -62.938712
v 63.366901 -27.335200 -62.938712
v 77.544335 -27.335200 -62.938712
v -64.230057 -27.335200 -77.116146
v -50.052618 -27.335200 -77.116146
v -35.875180 -27.335200 -77.116146
v -21.697738 -27.335200 -77.116146
v -7.520299 -27.335200 -77.116146
v 6.657139 -27.335200 -77.116146
v 20.834582 -27.335200 -77.116146
v 35.012016 -27.335200 -77.116146
v 49.189458 -27.335200 -77.116146
v 63.366901 -27.335200 -77.116146
v 77.544335 -27.335200 -77.116146
vt 0.000000 0.000000
vt 0.100000 0.000000
vt 0.200000 0.000000
vt 0.300000 0.000000
vt 0.400000 0.000000
vt 0.500000 0.000000
vt 0.600000 0.000000
vt 0.700000 0.000000
vt 0.800000 0.000000
vt 0.900000 0.000000
vt 1.000000 0.000000
vt 0.000000 0.100000
vt 0.100000 0.100000
vt 0.200000 0.100000
vt 0.300000 0.100000
vt 0.400000 0.100000
vt 0.500000 0.100000
vt 0.600000 0.100000
vt 0.700000 0.100000
vt 0.800000 0.100000
vt 0.900000 0.100000
vt 1.000000 0.100000
vt 0.000000 0.200000
vt 0.100000 0.200000
vt 0.200000 0.200000
vt 0.300000 0.200000
vt 0.400000 0.200000
vt 0.500000 0.200000
vt 0.600000 0.200000
vt 0.700000 0.200000
vt 0.800000 0.200000
vt 0.900000 0.200000
vt 1.000000 0.200000
vt 0.000000 0.300000
vt 0.100000 0.300000
vt 0.200000 0.300000
vt 0.300000 0.300000
vt 0.400000 0.300000
vt 0.500000 0.300000
vt 0.600000 0.300000
vt 0.700000 0.300000
vt 0.800000 0.300000
vt 0.900000 0.300000
vt 1.000000 0.300000
vt 0.000000 0.400000
vt 0.100000 0.400000
vt 0.200000 0.400000
vt 0.300000 0.400000
vt 0.400000 0.400000
vt 0.500000 0.400000
vt 0.600000 0.400000
vt 0.700000 0.400000
vt 0.800000 0.400000
vt 0.900000 0.400000
vt 1.000000 0.400000
vt 0.000000 0.500000
vt 0.100000 0.500000
vt 0.200000 0.500000
vt 0.300000 0.500000
vt 0.400000 0.500000
vt 0.500000 0.500000
vt 0.600000 0.500000
vt 0.700000 0.500000
vt 0.800000 0.500000
vt 0.900000 0.500000
vt 1.000000 0.500000
vt 0.000000 0.600000
vt 0.100000 0.600000
vt 0.200000 0.600000
vt 0.300000 0.600000
vt 0.400000 0.600000
vt 0.500000 0.600000
vt 0.600000 0.600000
vt 0.700000 0.600000
vt 0.800000 0.600000
vt 0.900000 0.600000
vt 1.000000 0.600000
vt 0.000000 0.700000
vt 0.100000 0.700000
vt 0.200000 0.700000
vt 0.300000 0.700000
vt 0.400000 0.700000
vt 0.500000 0.700000
vt 0.600000 0.700000
vt 0.700000 0.700000
vt 0.800000 0.700000
vt 0.900000 0.700000
vt 1.000000 0.700000
vt 0.000000 0.800000
vt 0.100000 0.800000
vt 0.200000 0.800000
vt 0.300000 0.800000
vt 0.400000 0.800000
vt 0.500000 0.800000
vt 0.600000 0.800000
vt 0.700000 0.800000
vt 0.800000 0.800000
vt 0.900000 0.800000
vt 1.000000 0.800000
vt 0.000000 0.900000
vt 0.100000 0.900000
vt 0.200000 0.900000
vt 0.300000 0.900000
vt 0.400000 0.900000
vt 0.500000 0.900000
vt 0.600000 0.900000
vt 0.700000 0.900000
vt 0.800000 0.900000
vt 0.900000 0.900000
vt 1.000000 0.900000
vt 0.000000 1.000000
vt 0.100000 1.000000
vt 0.200000 1.000000
vt 0.300000 1.000000
vt 0.400000 1.000000
vt 0.500000 1.000000
vt 0.600000 1.000000
vt 0.700000 1.000000
vt 0.800000 1.000000
vt 0.900000 1.000000
vt 1.000000 1.000000
vn 0.000000 1.000000 0.000000
vn 0.000000 1.000000 0.000000
vn 0.000000 1.000000 0.000000
vn 0.000000 1.000000 0.000000
vn 0.000000 1.000000 0.000000
vn 0.000000 1.000000 0.000000
vn 0.000000 1.000000 0.000000
vn 0.000000 1.000000 0.000000
vn 0.000000 1.000000 0.000000
vn 0.000000 1.000000 0.000000
vn 0.000000 1.000000 0.000000
vn 0.000000 1.000000 0.000000
vn 0.000000 1.000000 0.000000
vn 0.000000 1.000000 0.000000
vn 0.000000 1.000000 0.000000
vn 0.000000 1.000000 0.000000
vn 0.000000 1.000000 0.000000
vn 0.000000 1.000000 0.000000
vn 0.000000 1.000000 0.000000
vn 0.000000 1.000000 0.000000
vn 0.000000 1.000000 0.000000
vn 0.000000 1.000000 0.000000
vn 0.000000 1.000000 0.000000
vn 0.000000 1.000000 0.000000
vn 0.000000 1.000000 0.000000
vn 0.000000 1.000000 0.000000
vn 0.000000 1.000000 0.000000
vn 0.000000 1.000000 0.000000
vn 0.000000 1.000000 0.000000
vn 0.000000 1.000000 0.000000
vn 0.000000 1.000000 0.000000
vn 0.000000 1.000000 0.000000
vn 0.000000 1.000000 0.000000
vn 0.000000 1.000000 0.000000
vn 0.000000 1.000000 0.000000
vn 0.000000 1.000000 0.000000
vn 0.000000 1.000000 0.000000
vn 0.000000 1.000000 0.000000
vn 0.000000 1.000000 0.000000
vn 0.000000 1.000000 0.000000
vn 0.000000 1.000000 0.000000
vn 0.000000 1.000000 0.000000
vn 0.000000 1.000000 0.000000
vn 0.000000 1.000000 0.000000
vn 0.000000 1.000000 0.000000
vn 0.000000 1.000000 0.000000
vn 0.000000 1.000000 0.000000
vn 0.000000 1.000000 0.000000
vn 0.000000 1.000000 0.000000
vn 0.000000 1.000000 0.000000
vn 0.000000 1.000000 0.000000
vn 0.000000 1.000000 0.000000
vn 0.000000 1.000000 0.000000
vn 0.000000 1.000000 0.000000
vn 0.000000 1.000000 0.000000
vn 0.000000 1.000000 0.000000
vn 0.000000 1.000000 0.000000
vn 0.000000 1.000000 0.000000
vn 0.000000 1.000000 0.000000
vn 0.000000 1.000000 0.000000
vn 0.000000 1.000000 0.000000
vn 0.000000 1.000000 0.000000
vn 0.000000 1.000000 0.000000
vn 0.000000 1.000000 0.000000
vn 0.000000 1.000000 0.000000
vn 0.000000 1.000000 0.000000
vn 0.000000 1.000000 0.000000
vn 0.000000 1.000000 0.000000
vn 0.000000 1.000000 0.000000
vn 0.000000 1.000000 0.000000
vn 0.000000 1.000000 0.000000
vn 0.000000 1.000000 0.000000
vn 0.000000 1.000000 0.000000
vn 0.000000 1.000000 0.000000
vn 0.000000 1.000000 0.000000
vn 0.000000 1.000000 0.000000
vn 0.000000 1.000000 0.000000
vn 0.000000 1.000000 0.000000
vn 0.000000 1.000000 0.000000
vn 0.000000 1.000000 0.000000
vn 0.000000 1.000000 0.000000
vn 0.000000 1.000000 0.000000
vn 0.000000 1.000000 0.000000
vn 0.000000 1.000000 0.000000
vn 0.000000 1.000000 0.000000
vn 0.000000 1.000000 0.000000
vn 0.000000 1.000000 0.000000
vn 0.000000 1.000000 0.000000
vn 0.000000 1.000000 0.000000
vn 0.000000 1.000000 0.000000
vn 0.000000 1.000000 0.000000
vn 0.000000 1.000000 0.000000
vn 0.000000 1.000000 0.000000
vn 0.000000 1.000000 0.000000
vn 0.000000 1.000000 0.000000
vn 0.000000 1.000000 0.000000
vn 0.000000 1.000000 0.000000
vn 0.000000 1.000000 0.000000
vn 0.000000 1.000000 0.000000
vn 0.000000 1.000000 0.000000
vn 0.000000 1.000000 0.000000
vn 0.000000 1.000000 0.000000
vn 0.000000 1.000000 0.000000
vn 0.000000 1.000000 0.000000
vn 0.000000 1.000000 0.000000
vn 0.000000 1.000000 0.000000
vn 0.000000 1.000000 0.000000
vn 0.000000 1.000000 0.000000
vn 0.000000 1.000000 0.000000
vn 0.000000 1.000000 0.000000
vn 0.000000 1.000000 0.000000
vn 0.000000 1.000000 0.000000
vn 0.000000 1.000000 0.000000
vn 0.000000 1.000000 0.000000
vn 0.000000 1.000000 0.000000
vn 0.000000 1.000000 0.000000
vn 0.000000 1.000000 0.000000
vn 0.000000 1.000000 0.000000
vn 0.000000 1.000000 0.000000
vn 0.000000 1.000000 0.000000
vn 0.000000 1.000000 0.000000
s 1
g pPlane2
usemtl lambert3SG
f 13/19/29 14/20/30 25/31/31 24/30/32
f 14/20/30 15/21/33 26/32/34 25/31/31
f 15/21/33 16/22/35 27/33/36 26/32/34
f 16/22/35 17/23/37 28/34/38 27/33/36
f 17/23/37 18/24/39 29/35/40 28/34/38
f 18/24/39 19/25/41 30/36/42 29/35/40
f 19/25/41 20/26/43 31/37/44 30/36/42
f 20/26/43 21/27/45 32/38/46 31/37/44
f 21/27/45 22/28/47 33/39/48 32/38/46
f 22/28/47 23/29/49 34/40/50 33/39/48
f 24/30/32 25/31/31 36/42/51 35/41/52
f 25/31/31 26/32/34 37/43/53 36/42/51
f 26/32/34 27/33/36 38/44/54 37/43/53
f 27/33/36 28/34/38 39/45/55 38/44/54
f 28/34/38 29/35/40 40/46/56 39/45/55
f 29/35/40 30/36/42 41/47/57 40/46/56
f 30/36/42 31/37/44 42/48/58 41/47/57
f 31/37/44 32/38/46 43/49/59 42/48/58
f 32/38/46 33/39/48 44/50/60 43/49/59
f 33/39/48 34/40/50 45/51/61 44/50/60
f 35/41/52 36/42/51 47/53/62 46/52/63
f 36/42/51 37/43/53 48/54/64 47/53/62
f 37/43/53 38/44/54 49/55/65 48/54/64
f 38/44/54 39/45/55 50/56/66 49/55/65
f 39/45/55 40/46/56 51/57/67 50/56/66
f 40/46/56 41/47/57 52/58/68 51/57/67
f 41/47/57 42/48/58 53/59/69 52/58/68
f 42/48/58 43/49/59 54/60/70 53/59/69
f 43/49/59 44/50/60 55/61/71 54/60/70
f 44/50/60 45/51/61 56/62/72 55/61/71
f 46/52/63 47/53/62 58/64/73 57/63/74
f 47/53/62 48/54/64 59/65/75 58/64/73
f 48/54/64 49/55/65 60/66/76 59/65/75
f 49/55/65 50/56/66 61/67/77 60/66/76
f 50/56/66 51/57/67 62/68/78 61/67/77
f 51/57/67 52/58/68 63/69/79 62/68/78
f 52/58/68 53/59/69 64/70/80 63/69/79
f 53/59/69 54/60/70 65/71/81 64/70/80
f 54/60/70 55/61/71 66/72/82 65/71/81
f 55/61/71 56/62/72 67/73/83 66/72/82
f 57/63/74 58/64/73 69/75/84 68/74/85
f 58/64/73 59/65/75 70/76/86 69/75/84
f 59/65/75 60/66/76 71/77/87 70/76/86
f 60/66/76 61/67/77 72/78/88 71/77/87
f 61/67/77 62/68/78 73/79/89 72/78/88
f 62/68/78 63/69/79 74/80/90 73/79/89
f 63/69/79 64/70/80 75/81/91 74/80/90
f 64/70/80 65/71/81 76/82/92 75/81/91
f 65/71/81 66/72/82 77/83/93 76/82/92
f 66/72/82 67/73/83 78/84/94 77/83/93
f 68/74/85 69/75/84 80/86/95 79/85/96
f 69/75/84 70/76/86 81/87/97 80/86/95
f 70/76/86 71/77/87 82/88/98 81/87/97
f 71/77/87 72/78/88 83/89/99 82/88/98
f 72/78/88 73/79/89 84/90/100 83/89/99
f 73/79/89 74/80/90 85/91/101 84/90/100
f 74/80/90 75/81/91 86/92/102 85/91/101
f 75/81/91 76/82/92 87/93/103 86/92/102
f 76/82/92 77/83/93 88/94/104 87/93/103
f 77/83/93 78/84/94 89/95/105 88/94/104
f 79/85/96 80/86/95 91/97/106 90/96/107
f 80/86/95 81/87/97 92/98/108 91/97/106
f 81/87/97 82/88/98 93/99/109 92/98/108
f 82/88/98 83/89/99 94/100/110 93/99/109
f 83/89/99 84/90/100 95/101/111 94/100/110
f 84/90/100 85/91/101 96/102/112 95/101/111
f 85/91/101 86/92/102 97/103/113 96/102/112
f 86/92/102 87/93/103 98/104/114 97/103/113
f 87/93/103 88/94/104 99/105/115 98/104/114
f 88/94/104 89/95/105 100/106/116 99/105/115
f 90/96/107 91/97/106 102/108/117 101/107/118
f 91/97/106 92/98/108 103/109/119 102/108/117
f 92/98/108 93/99/109 104/110/120 103/109/119
f 93/99/109 94/100/110 105/111/121 104/110/120
f 94/100/110 95/101/111 106/112/122 105/111/121
f 95/101/111 96/102/112 107/113/123 106/112/122
f 96/102/112 97/103/113 108/114/124 107/113/123
f 97/103/113 98/104/114 109/115/125 108/114/124
f 98/104/114 99/105/115 110/116/126 109/115/125
f 99/105/115 100/106/116 111/117/127 110/116/126
f 101/107/118 102/108/117 113/119/128 112/118/129
f 102/108/117 103/109/119 114/120/130 113/119/128
f 103/109/119 104/110/120 115/121/131 114/120/130
f 104/110/120 105/111/121 116/122/132 115/121/131
f 105/111/121 106/112/122 117/123/133 116/122/132
f 106/112/122 107/113/123 118/124/134 117/123/133
f 107/113/123 108/114/124 119/125/135 118/124/134
f 108/114/124 109/115/125 120/126/136 119/125/135
f 109/115/125 110/116/126 121/127/137 120/126/136
f 110/116/126 111/117/127 122/128/138 121/127/137
f 112/118/129 113/119/128 124/130/139 123/129/140
f 113/119/128 114/120/130 125/131/141 124/130/139
f 114/120/130 115/121/131 126/132/142 125/131/141
f 115/121/131 116/122/132 127/133/143 126/132/142
f 116/122/132 117/123/133 128/134/144 127/133/143
f 117/123/133 118/124/134 129/135/145 128/134/144
f 118/124/134 119/125/135 130/136/146 129/135/145
f 119/125/135 120/126/136 131/137/147 130/136/146
f 120/126/136 121/127/137 132/138/148 131/137/147
f 121/127/137 122/128/138 133/139/149 132/138/148
g default
v -38.704027 -25.668098 -7.577001
v -38.704027 -16.812473 -7.577001
v -39.432199 -25.668098 -8.798165
v -39.432199 -16.812473 -8.798165
vt 0.000000 0.000000
vt 1.000000 0.000000
vt 0.000000 1.000000
vt 1.000000 1.000000
vn -0.858894 0.000000 0.512153
vn -0.858894 0.000000 0.512153
vn -0.858894 0.000000 0.512153
vn -0.858894 0.000000 0.512153
s off
g pPlane3
usemtl lambert5SG
f 134/140/150 135/141/151 137/143/152 136/142/153
g default
v -39.327644 -27.173746 -10.419218
v -49.722594 -27.173746 -11.250428
v -45.244968 -27.173746 -1.832533
v -39.327644 -15.132380 -10.419218
v -49.722594 -15.132380 -11.250428
v -45.244968 -15.132380 -1.832533
v -44.765069 -27.173746 -7.834059
v -44.765069 -15.132380 -7.834059
vt 0.421875 0.020934
vt 0.421875 0.291566
vt 0.656250 0.156250
vt 0.375000 0.312500
vt 0.458333 0.312500
vt 0.541667 0.312500
vt 0.625000 0.312500
vt 0.375000 0.688440
vt 0.458333 0.688440
vt 0.541667 0.688440
vt 0.625000 0.688440
vt 0.421875 0.708434
vt 0.421875 0.979066
vt 0.656250 0.843750
vt 0.500000 0.150000
vt 0.500000 0.837500
vn 0.079708 0.000000 -0.996818
vn 0.079708 0.000000 -0.996818
vn 0.079708 0.000000 -0.996818
vn 0.079708 0.000000 -0.996818
vn -0.903124 0.000000 0.429380
vn -0.903124 0.000000 0.429380
vn -0.903124 0.000000 0.429380
vn -0.903124 0.000000 0.429380
vn 0.823416 0.000000 0.567439
vn 0.823416 0.000000 0.567439
vn 0.823416 0.000000 0.567439
vn 0.823416 0.000000 0.567439
vn -0.000000 -1.000000 -0.000000
vn -0.000000 -1.000000 -0.000000
vn -0.000000 -1.000000 -0.000000
vn -0.000000 -1.000000 -0.000000
vn 0.000000 1.000000 0.000000
vn -0.000000 1.000000 -0.000000
vn -0.000000 1.000000 -0.000000
vn -0.000000 1.000000 -0.000000
s off
g pCylinder1
usemtl lambert6SG
f 138/147/154 139/148/155 142/152/156 141/151/157
f 139/148/158 140/149/159 143/153/160 142/152/161
f 140/149/162 138/150/163 141/154/164 143/153/165
s 1
f 139/145/166 138/144/167 144/158/168
f 140/146/169 139/145/166 144/158/168
f 138/144/167 140/146/169 144/158/168
s 2
f 141/156/170 142/155/171 145/159/172
f 142/155/171 143/157/173 145/159/172
f 143/157/173 141/156/170 145/159/172
g default
v 11.896645 -26.193356 -53.416815
v 11.896645 -17.860036 -53.416815
v 13.315080 -26.193356 -53.319249
v 13.315080 -17.860036 -53.319249
vt 0.000000 0.000000
vt 1.000000 0.000000
vt 0.000000 1.000000
vt 1.000000 1.000000
vn 0.068622 -0.000000 -0.997643
vn 0.068622 -0.000000 -0.997643
vn 0.068622 -0.000000 -0.997643
vn 0.068622 -0.000000 -0.997643
s off
g pPlane4
usemtl lambert5SG
f 146/160/174 147/161/175 149/163/176 148/162/177
g default
v 18.181372 -27.173746 -57.674212
v 13.582409 -27.173746 -67.033454
v 7.776549 -27.173746 -58.371014
v 18.181372 -15.132380 -57.674212
v 13.582409 -15.132380 -67.033454
v 7.776549 -15.132380 -58.371014
v 13.180110 -27.173746 -61.026227
v 13.180110 -15.132380 -61.026227
vt 0.421875 0.020934
vt 0.421875 0.291566
vt 0.656250 0.156250
vt 0.375000 0.312500
vt 0.458333 0.312500
vt 0.541667 0.312500
vt 0.625000 0.312500
vt 0.375000 0.688440
vt 0.458333 0.688440
vt 0.541667 0.688440
vt 0.625000 0.688440
vt 0.421875 0.708434
vt 0.421875 0.979066
vt 0.656250 0.843750
vt 0.500000 0.150000
vt 0.500000 0.837500
vn 0.897500 0.000000 -0.441015
vn 0.897500 0.000000 -0.441015
vn 0.897500 0.000000 -0.441015
vn 0.897500 0.000000 -0.441015
vn -0.830680 0.000000 -0.556750
vn -0.830680 0.000000 -0.556750
vn -0.830680 0.000000 -0.556750
vn -0.830680 0.000000 -0.556750
vn -0.066820 0.000000 0.997765
vn -0.066820 0.000000 0.997765
vn -0.066820 0.000000 0.997765
vn -0.066820 0.000000 0.997765
vn -0.000000 -1.000000 -0.000000
vn -0.000000 -1.000000 -0.000000
vn -0.000000 -1.000000 -0.000000
vn -0.000000 -1.000000 -0.000000
vn 0.000000 1.000000 0.000000
vn -0.000000 1.000000 -0.000000
vn -0.000000 1.000000 -0.000000
vn -0.000000 1.000000 -0.000000
s off
g pCylinder2
usemtl lambert6SG
f 150/167/178 151/168/179 154/172/180 153/171/181
f 151/168/182 152/169/183 155/173/184 154/172/185
f 152/169/186 150/170/187 153/174/188 155/173/189
s 1
f 151/165/190 150/164/191 156/178/192
f 152/166/193 151/165/190 156/178/192
f 150/164/191 152/166/193 156/178/192
s 2
f 153/176/194 154/175/195 157/179/196
f 154/175/195 155/177/197 157/179/196
f 155/177/197 153/176/194 157/179/196
g default
v 50.953955 -27.090025 -4.477558
v 61.382084 -27.090025 -4.477558
v 56.168020 -18.059000 -4.477558
v 50.953955 -27.090025 7.563808
v 61.382084 -27.090025 7.563808
v 56.168020 -18.059000 7.563808
v 56.168020 -24.079684 -4.477558
v 56.168020 -24.079684 7.563808
vt 0.421875 0.020934
vt 0.421875 0.291566
vt 0.656250 0.156250
vt 0.375000 0.312500
vt 0.458333 0.312500
vt 0.541667 0.312500
vt 0.625000 0.312500
vt 0.375000 0.688440
vt 0.458333 0.688440
vt 0.541667 0.688440
vt 0.625000 0.688440
vt 0.421875 0.708434
vt 0.421875 0.979066
vt 0.656250 0.843750
vt 0.500000 0.150000
vt 0.500000 0.837500
vn -0.000000 -1.000000 -0.000000
vn -0.000000 -1.000000 -0.000000
vn -0.000000 -1.000000 -0.000000
vn -0.000000 -1.000000 -0.000000
vn 0.866026 0.500000 0.000000
vn 0.866026 0.500000 0.000000
vn 0.866026 0.500000 0.000000
vn 0.866026 0.500000 0.000000
vn -0.866025 0.500000 -0.000000
vn -0.866025 0.500000 -0.000000
vn -0.866025 0.500000 -0.000000
vn -0.866025 0.500000 -0.000000
vn 0.000000 -0.000000 -1.000000
vn 0.000000 -0.000000 -1.000000
vn 0.000000 -0.000000 -1.000000
vn 0.000000 -0.000000 -1.000000
vn -0.000000 0.000000 1.000000
vn 0.000000 0.000000 1.000000
vn 0.000000 0.000000 1.000000
vn 0.000000 0.000000 1.000000
s off
g pCylinder3
usemtl lambert6SG
f 158/183/198 159/184/199 162/188/200 161/187/201
f 159/184/202 160/185/203 163/189/204 162/188/205
f 160/185/206 158/186/207 161/190/208 163/189/209
s 1
f 159/181/210 158/180/211 164/194/212
f 160/182/213 159/181/210 164/194/212
f 158/180/211 160/182/213 164/194/212
s 2
f 161/192/214 162/191/215 165/195/216
f 162/191/215 163/193/217 165/195/216
f 163/193/217 161/192/214 165/195/216
g default
v 49.999201 -25.292010 -3.734233
v 49.110053 -23.439830 -3.734233
v 50.007662 -25.287948 6.502204
v 49.118515 -23.435768 6.502204
vt 0.000000 0.000000
vt 1.000000 0.000000
vt 0.000000 1.000000
vt 1.000000 1.000000
vn 0.901503 0.432771 -0.000917
vn 0.901503 0.432771 -0.000917
vn 0.901503 0.432771 -0.000917
vn 0.901503 0.432771 -0.000917
s off
g pPlane5
usemtl lambert5SG
f 166/196/218 167/197/219 169/199/220 168/198/221
