# This file uses centimeters as units for non-parametric coordinates.

mtllib test_prism.mtl
g default
v -143.712740 -143.712740 57.337825
v 143.712740 -143.712740 57.337825
v -143.712740 143.712740 57.337825
v 143.712740 143.712740 57.337825
v -143.712740 143.712740 -230.087655
v 143.712740 143.712740 -230.087655
v -143.712740 -143.712740 -230.087655
v 143.712740 -143.712740 -230.087655
vt 0.375000 0.000000
vt 0.625000 0.000000
vt 0.375000 0.250000
vt 0.625000 0.250000
vt 0.375000 0.500000
vt 0.625000 0.500000
vt 0.375000 0.750000
vt 0.625000 0.750000
vt 0.375000 1.000000
vt 0.625000 1.000000
vt 0.875000 0.000000
vt 0.875000 0.250000
vt 0.125000 0.000000
vt 0.125000 0.250000
vn 0.000000 0.000000 -1.000000
vn 0.000000 0.000000 -1.000000
vn 0.000000 0.000000 -1.000000
vn 0.000000 0.000000 -1.000000
vn 0.000000 -1.000000 0.000000
vn 0.000000 -1.000000 0.000000
vn 0.000000 -1.000000 0.000000
vn 0.000000 -1.000000 0.000000
vn 0.000000 0.000000 1.000000
vn 0.000000 0.000000 1.000000
vn 0.000000 0.000000 1.000000
vn 0.000000 0.000000 1.000000
vn 0.000000 1.000000 0.000000
vn 0.000000 1.000000 0.000000
vn 0.000000 1.000000 0.000000
vn 0.000000 1.000000 0.000000
vn -1.000000 0.000000 0.000000
vn -1.000000 0.000000 0.000000
vn -1.000000 0.000000 0.000000
vn -1.000000 0.000000 0.000000
vn 1.000000 0.000000 0.000000
vn 1.000000 0.000000 0.000000
vn 1.000000 0.000000 0.000000
vn 1.000000 0.000000 0.000000
s off
g pCube1
usemtl initialShadingGroup
f 1/1/1 3/3/2 4/4/3 2/2/4
f 3/3/5 5/5/6 6/6/7 4/4/8
f 5/5/9 7/7/10 8/8/11 6/6/12
f 7/7/13 1/9/14 2/10/15 8/8/16
f 2/2/17 4/4/18 6/12/19 8/11/20
f 7/13/21 5/14/22 3/3/23 1/1/24
g default
v -37.763436 142.535770 -48.611479
v 37.763436 142.535770 -48.611479
v -37.763436 142.535770 -124.138350
v 37.763436 142.535770 -124.138350
vt 0.000000 0.000000
vt 1.000000 0.000000
vt 0.000000 1.000000
vt 1.000000 1.000000
vn 0.000000 -1.000000 0.000000
vn 0.000000 -1.000000 0.000000
vn 0.000000 -1.000000 0.000000
vn 0.000000 -1.000000 0.000000
s off
g pPlane1
usemtl lambert2SG
f 9/15/25 11/17/26 12/18/27 10/16/28
g default
v -108.593500 -44.725419 22.211873
v -86.874802 -44.725419 22.211873
v -65.156103 -44.725419 22.211873
v -43.437398 -44.725419 22.211873
v -21.718699 -44.725419 22.211873
v 0.000000 -44.725419 22.211873
v 21.718705 -44.725419 22.211873
v 43.437398 -44.725419 22.211873
v 65.156103 -44.725419 22.211873
v 86.874808 -44.725419 22.211873
v 108.593500 -44.725419 22.211873
v -108.593500 -44.725419 0.493174
v -86.874802 -44.725419 0.493174
v -65.156103 -44.725419 0.493174
v -43.437398 -44.725419 0.493174
v -21.718699 -44.725419 0.493174
v 0.000000 -44.725419 0.493174
v 21.718705 -44.725419 0.493174
v 43.437398 -44.725419 0.493174
v 65.156103 -44.725419 0.493174
v 86.874808 -44.725419 0.493174
v 108.593500 -44.725419 0.493174
v -108.593500 -44.725419 -21.225525
v -86.874802 -44.725419 -21.225525
v -65.156103 -44.725419 -21.225525
v -43.437398 -44.725419 -21.225525
v -21.718699 -44.725419 -21.225525
v 0.000000 -44.725419 -21.225525
v 21.718705 -44.725419 -21.225525
v 43.437398 -44.725419 -21.225525
v 65.156103 -44.725419 -21.225525
v 86.874808 -44.725419 -21.225525
v 108.593500 -44.725419 -21.225525
v -108.593500 -44.725419 -42.944230
v -86.874802 -44.725419 -42.944230
v -65.156103 -44.725419 -42.944230
v -43.437398 -44.725419 -42.944230
v -21.718699 -44.725419 -42.944230
v 0.000000 -44.725419 -42.944230
v 21.718705 -44.725419 -42.944230
v 43.437398 -44.725419 -42.944230
v 65.156103 -44.725419 -42.944230
v 86.874808 -44.725419 -42.944230
v 108.593500 -44.725419 -42.944230
v -108.593500 -44.725419 -64.662929
v -86.874802 -44.725419 -64.662929
v -65.156103 -44.725419 -64.662929
v -43.437398 -44.725419 -64.662929
v -21.718699 -44.725419 -64.662929
v 0.000000 -44.725419 -64.662929
v 21.718705 -44.725419 -64.662929
v 43.437398 -44.725419 -64.662929
v 65.156103 -44.725419 -64.662929
v 86.874808 -44.725419 -64.662929
v 108.593500 -44.725419 -64.662929
v -108.593500 -44.725419 -86.381627
v -86.874802 -44.725419 -86.381627
v -65.156103 -44.725419 -86.381627
v -43.437398 -44.725419 -86.381627
v -21.718699 -44.725419 -86.381627
v 0.000000 -44.725419 -86.381627
v 21.718705 -44.725419 -86.381627
v 43.437398 -44.725419 -86.381627
v 65.156103 -44.725419 -86.381627
v 86.874808 -44.725419 -86.381627
v 108.593500 -44.725419 -86.381627
v -108.593500 -44.725419 -108.100333
v -86.874802 -44.725419 -108.100333
v -65.156103 -44.725419 -108.100333
v -43.437398 -44.725419 -108.100333
v -21.718699 -44.725419 -108.100333
v 0.000000 -44.725419 -108.100333
v 21.718705 -44.725419 -108.100333
v 43.437398 -44.725419 -108.100333
v 65.156103 -44.725419 -108.100333
v 86.874808 -44.725419 -108.100333
v 108.593500 -44.725419 -108.100333
v -108.593500 -44.725419 -129.819025
v -86.874802 -44.725419 -129.819025
v -65.156103 -44.725419 -129.819025
v -43.437398 -44.725419 -129.819025
v -21.718699 -44.725419 -129.819025
v 0.000000 -44.725419 -129.819025
v 21.718705 -44.725419 -129.819025
v 43.437398 -44.725419 -129.819025
v 65.156103 -44.725419 -129.819025
v 86.874808 -44.725419 -129.819025
v 108.593500 -44.725419 -129.819025
v -108.593500 -44.725419 -151.537730
v -86.874802 -44.725419 -151.537730
v -65.156103 -44.725419 -151.537730
v -43.437398 -44.725419 -151.537730
v -21.718699 -44.725419 -151.537730
v 0.000000 -44.725419 -151.537730
v 21.718705 -44.725419 -151.537730
v 43.437398 -44.725419 -151.537730
v 65.156103 -44.725419 -151.537730
v 86.874808 -44.725419 -151.537730
v 108.593500 -44.725419 -151.537730
v -108.593500 -44.725419 -173.256435
v -86.874802 -44.725419 -173.256435
v -65.156103 -44.725419 -173.256435
v -43.437398 -44.725419 -173.256435
v -21.718699 -44.725419 -173.256435
v 0.000000 -44.725419 -173.256435
v 21.718705 -44.725419 -173.256435
v 43.437398 -44.725419 -173.256435
v 65.156103 -44.725419 -173.256435
v 86.874808 -44.725419 -173.256435
v 108.593500 -44.725419 -173.256435
v -108.593500 -44.725419 -194.975128
v -86.874802 -44.725419 -194.975128
v -65.156103 -44.725419 -194.975128
v -43.437398 -44.725419 -194.975128
v -21.718699 -44.725419 -194.975128
v 0.000000 -44.725419 -194.975128
v 21.718705 -44.725419 -194.975128
v 43.437398 -44.725419 -194.975128
v 65.156103 -44.725419 -194.975128
v 86.874808 -44.725419 -194.975128
v 108.593500 -44.725419 -194.975128
vt 0.000000 0.000000
vt 0.100000 0.000000
vt 0.200000 0.000000
vt 0.300000 0.000000
vt 0.400000 0.000000
vt 0.500000 0.000000
vt 0.600000 0.000000
vt 0.700000 0.000000
vt 0.800000 0.000000
vt 0.900000 0.000000
vt 1.000000 0.000000
vt 0.000000 0.100000
vt 0.100000 0.100000
vt 0.200000 0.100000
vt 0.300000 0.100000
vt 0.400000 0.100000
vt 0.500000 0.100000
vt 0.600000 0.100000
vt 0.700000 0.100000
vt 0.800000 0.100000
vt 0.900000 0.100000
vt 1.000000 0.100000
vt 0.000000 0.200000
vt 0.100000 0.200000
vt 0.200000 0.200000
vt 0.300000 0.200000
vt 0.400000 0.200000
vt 0.500000 0.200000
vt 0.600000 0.200000
vt 0.700000 0.200000
vt 0.800000 0.200000
vt 0.900000 0.200000
vt 1.000000 0.200000
vt 0.000000 0.300000
vt 0.100000 0.300000
vt 0.200000 0.300000
vt 0.300000 0.300000
vt 0.400000 0.300000
vt 0.500000 0.300000
vt 0.600000 0.300000
vt 0.700000 0.300000
vt 0.800000 0.300000
vt 0.900000 0.300000
vt 1.000000 0.300000
vt 0.000000 0.400000
vt 0.100000 0.400000
vt 0.200000 0.400000
vt 0.300000 0.400000
vt 0.400000 0.400000
vt 0.500000 0.400000
vt 0.600000 0.400000
vt 0.700000 0.400000
vt 0.800000 0.400000
vt 0.900000 0.400000
vt 1.000000 0.400000
vt 0.000000 0.500000
vt 0.100000 0.500000
vt 0.200000 0.500000
vt 0.300000 0.500000
vt 0.400000 0.500000
vt 0.500000 0.500000
vt 0.600000 0.500000
vt 0.700000 0.500000
vt 0.800000 0.500000
vt 0.900000 0.500000
vt 1.000000 0.500000
vt 0.000000 0.600000
vt 0.100000 0.600000
vt 0.200000 0.600000
vt 0.300000 0.600000
vt 0.400000 0.600000
vt 0.500000 0.600000
vt 0.600000 0.600000
vt 0.700000 0.600000
vt 0.800000 0.600000
vt 0.900000 0.600000
vt 1.000000 0.600000
vt 0.000000 0.700000
vt 0.100000 0.700000
vt 0.200000 0.700000
vt 0.300000 0.700000
vt 0.400000 0.700000
vt 0.500000 0.700000
vt 0.600000 0.700000
vt 0.700000 0.700000
vt 0.800000 0.700000
vt 0.900000 0.700000
vt 1.000000 0.700000
vt 0.000000 0.800000
vt 0.100000 0.800000
vt 0.200000 0.800000
vt 0.300000 0.800000
vt 0.400000 0.800000
vt 0.500000 0.800000
vt 0.600000 0.800000
vt 0.700000 0.800000
vt 0.800000 0.800000
vt 0.900000 0.800000
vt 1.000000 0.800000
vt 0.000000 0.900000
vt 0.100000 0.900000
vt 0.200000 0.900000
vt 0.300000 0.900000
vt 0.400000 0.900000
vt 0.500000 0.900000
vt 0.600000 0.900000
vt 0.700000 0.900000
vt 0.800000 0.900000
vt 0.900000 0.900000
vt 1.000000 0.900000
vt 0.000000 1.000000
vt 0.100000 1.000000
vt 0.200000 1.000000
vt 0.300000 1.000000
vt 0.400000 1.000000
vt 0.500000 1.000000
vt 0.600000 1.000000
vt 0.700000 1.000000
vt 0.800000 1.000000
vt 0.900000 1.000000
vt 1.000000 1.000000
vn 0.000000 1.000000 0.000000
vn 0.000000 1.000000 0.000000
vn 0.000000 1.000000 0.000000
vn 0.000000 1.000000 0.000000
vn 0.000000 1.000000 0.000000
vn 0.000000 1.000000 0.000000
vn 0.000000 1.000000 0.000000
vn 0.000000 1.000000 0.000000
vn 0.000000 1.000000 0.000000
vn 0.000000 1.000000 0.000000
vn 0.000000 1.000000 0.000000
vn 0.000000 1.000000 0.000000
vn 0.000000 1.000000 0.000000
vn 0.000000 1.000000 0.000000
vn 0.000000 1.000000 0.000000
vn 0.000000 1.000000 0.000000
vn 0.000000 1.000000 0.000000
vn 0.000000 1.000000 0.000000
vn 0.000000 1.000000 0.000000
vn 0.000000 1.000000 0.000000
vn 0.000000 1.000000 0.000000
vn 0.000000 1.000000 0.000000
vn 0.000000 1.000000 0.000000
vn 0.000000 1.000000 0.000000
vn 0.000000 1.000000 0.000000
vn 0.000000 1.000000 0.000000
vn 0.000000 1.000000 0.000000
vn 0.000000 1.000000 0.000000
vn 0.000000 1.000000 0.000000
vn 0.000000 1.000000 0.000000
vn 0.000000 1.000000 0.000000
vn 0.000000 1.000000 0.000000
vn 0.000000 1.000000 0.000000
vn 0.000000 1.000000 0.000000
vn 0.000000 1.000000 0.000000
vn 0.000000 1.000000 0.000000
vn 0.000000 1.000000 0.000000
vn 0.000000 1.000000 0.000000
vn 0.000000 1.000000 0.000000
vn 0.000000 1.000000 0.000000
vn 0.000000 1.000000 0.000000
vn 0.000000 1.000000 0.000000
vn 0.000000 1.000000 0.000000
vn 0.000000 1.000000 0.000000
vn 0.000000 1.000000 0.000000
vn 0.000000 1.000000 0.000000
vn 0.000000 1.000000 0.000000
vn 0.000000 1.000000 0.000000
vn 0.000000 1.000000 0.000000
vn 0.000000 1.000000 0.000000
vn 0.000000 1.000000 0.000000
vn 0.000000 1.000000 0.000000
vn 0.000000 1.000000 0.000000
vn 0.000000 1.000000 0.000000
vn 0.000000 1.000000 0.000000
vn 0.000000 1.000000 0.000000
vn 0.000000 1.000000 0.000000
vn 0.000000 1.000000 0.000000
vn 0.000000 1.000000 0.000000
vn 0.000000 1.000000 0.000000
vn 0.000000 1.000000 0.000000
vn 0.000000 1.000000 0.000000
vn 0.000000 1.000000 0.000000
vn 0.000000 1.000000 0.000000
vn 0.000000 1.000000 0.000000
vn 0.000000 1.000000 0.000000
vn 0.000000 1.000000 0.000000
vn 0.000000 1.000000 0.000000
vn 0.000000 1.000000 0.000000
vn 0.000000 1.000000 0.000000
vn 0.000000 1.000000 0.000000
vn 0.000000 1.000000 0.000000
vn 0.000000 1.000000 0.000000
vn 0.000000 1.000000 0.000000
vn 0.000000 1.000000 0.000000
vn 0.000000 1.000000 0.000000
vn 0.000000 1.000000 0.000000
vn 0.000000 1.000000 0.000000
vn 0.000000 1.000000 0.000000
vn 0.000000 1.000000 0.000000
vn 0.000000 1.000000 0.000000
vn 0.000000 1.000000 0.000000
vn 0.000000 1.000000 0.000000
vn 0.000000 1.000000 0.000000
vn 0.000000 1.000000 0.000000
vn 0.000000 1.000000 0.000000
vn 0.000000 1.000000 0.000000
vn 0.000000 1.000000 0.000000
vn 0.000000 1.000000 0.000000
vn 0.000000 1.000000 0.000000
vn 0.000000 1.000000 0.000000
vn 0.000000 1.000000 0.000000
vn 0.000000 1.000000 0.000000
vn 0.000000 1.000000 0.000000
vn 0.000000 1.000000 0.000000
vn 0.000000 1.000000 0.000000
vn 0.000000 1.000000 0.000000
vn 0.000000 1.000000 0.000000
vn 0.000000 1.000000 0.000000
vn 0.000000 1.000000 0.000000
vn 0.000000 1.000000 0.000000
vn 0.000000 1.000000 0.000000
vn 0.000000 1.000000 0.000000
vn 0.000000 1.000000 0.000000
vn 0.000000 1.000000 0.000000
vn 0.000000 1.000000 0.000000
vn 0.000000 1.000000 0.000000
vn 0.000000 1.000000 0.000000
vn 0.000000 1.000000 0.000000
vn 0.000000 1.000000 0.000000
vn 0.000000 1.000000 0.000000
vn 0.000000 1.000000 0.000000
vn 0.000000 1.000000 0.000000
vn 0.000000 1.000000 0.000000
vn 0.000000 1.000000 0.000000
vn 0.000000 1.000000 0.000000
vn 0.000000 1.000000 0.000000
vn 0.000000 1.000000 0.000000
vn 0.000000 1.000000 0.000000
vn 0.000000 1.000000 0.000000
vn 0.000000 1.000000 0.000000
s 1
g pPlane2
usemtl lambert3SG
f 13/19/29 14/20/30 25/31/31 24/30/32
f 14/20/30 15/21/33 26/32/34 25/31/31
f 15/21/33 16/22/35 27/33/36 26/32/34
f 16/22/35 17/23/37 28/34/38 27/33/36
f 17/23/37 18/24/39 29/35/40 28/34/38
f 18/24/39 19/25/41 30/36/42 29/35/40
f 19/25/41 20/26/43 31/37/44 30/36/42
f 20/26/43 21/27/45 32/38/46 31/37/44
f 21/27/45 22/28/47 33/39/48 32/38/46
f 22/28/47 23/29/49 34/40/50 33/39/48
f 24/30/32 25/31/31 36/42/51 35/41/52
f 25/31/31 26/32/34 37/43/53 36/42/51
f 26/32/34 27/33/36 38/44/54 37/43/53
f 27/33/36 28/34/38 39/45/55 38/44/54
f 28/34/38 29/35/40 40/46/56 39/45/55
f 29/35/40 30/36/42 41/47/57 40/46/56
f 30/36/42 31/37/44 42/48/58 41/47/57
f 31/37/44 32/38/46 43/49/59 42/48/58
f 32/38/46 33/39/48 44/50/60 43/49/59
f 33/39/48 34/40/50 45/51/61 44/50/60
f 35/41/52 36/42/51 47/53/62 46/52/63
f 36/42/51 37/43/53 48/54/64 47/53/62
f 37/43/53 38/44/54 49/55/65 48/54/64
f 38/44/54 39/45/55 50/56/66 49/55/65
f 39/45/55 40/46/56 51/57/67 50/56/66
f 40/46/56 41/47/57 52/58/68 51/57/67
f 41/47/57 42/48/58 53/59/69 52/58/68
f 42/48/58 43/49/59 54/60/70 53/59/69
f 43/49/59 44/50/60 55/61/71 54/60/70
f 44/50/60 45/51/61 56/62/72 55/61/71
f 46/52/63 47/53/62 58/64/73 57/63/74
f 47/53/62 48/54/64 59/65/75 58/64/73
f 48/54/64 49/55/65 60/66/76 59/65/75
f 49/55/65 50/56/66 61/67/77 60/66/76
f 50/56/66 51/57/67 62/68/78 61/67/77
f 51/57/67 52/58/68 63/69/79 62/68/78
f 52/58/68 53/59/69 64/70/80 63/69/79
f 53/59/69 54/60/70 65/71/81 64/70/80
f 54/60/70 55/61/71 66/72/82 65/71/81
f 55/61/71 56/62/72 67/73/83 66/72/82
f 57/63/74 58/64/73 69/75/84 68/74/85
f 58/64/73 59/65/75 70/76/86 69/75/84
f 59/65/75 60/66/76 71/77/87 70/76/86
f 60/66/76 61/67/77 72/78/88 71/77/87
f 61/67/77 62/68/78 73/79/89 72/78/88
f 62/68/78 63/69/79 74/80/90 73/79/89
f 63/69/79 64/70/80 75/81/91 74/80/90
f 64/70/80 65/71/81 76/82/92 75/81/91
f 65/71/81 66/72/82 77/83/93 76/82/92
f 66/72/82 67/73/83 78/84/94 77/83/93
f 68/74/85 69/75/84 80/86/95 79/85/96
f 69/75/84 70/76/86 81/87/97 80/86/95
f 70/76/86 71/77/87 82/88/98 81/87/97
f 71/77/87 72/78/88 83/89/99 82/88/98
f 72/78/88 73/79/89 84/90/100 83/89/99
f 73/79/89 74/80/90 85/91/101 84/90/100
f 74/80/90 75/81/91 86/92/102 85/91/101
f 75/81/91 76/82/92 87/93/103 86/92/102
f 76/82/92 77/83/93 88/94/104 87/93/103
f 77/83/93 78/84/94 89/95/105 88/94/104
f 79/85/96 80/86/95 91/97/106 90/96/107
f 80/86/95 81/87/97 92/98/108 91/97/106
f 81/87/97 82/88/98 93/99/109 92/98/108
f 82/88/98 83/89/99 94/100/110 93/99/109
f 83/89/99 84/90/100 95/101/111 94/100/110
f 84/90/100 85/91/101 96/102/112 95/101/111
f 85/91/101 86/92/102 97/103/113 96/102/112
f 86/92/102 87/93/103 98/104/114 97/103/113
f 87/93/103 88/94/104 99/105/115 98/104/114
f 88/94/104 89/95/105 100/106/116 99/105/115
f 90/96/107 91/97/106 102/108/117 101/107/118
f 91/97/106 92/98/108 103/109/119 102/108/117
f 92/98/108 93/99/109 104/110/120 103/109/119
f 93/99/109 94/100/110 105/111/121 104/110/120
f 94/100/110 95/101/111 106/112/122 105/111/121
f 95/101/111 96/102/112 107/113/123 106/112/122
f 96/102/112 97/103/113 108/114/124 107/113/123
f 97/103/113 98/104/114 109/115/125 108/114/124
f 98/104/114 99/105/115 110/116/126 109/115/125
f 99/105/115 100/106/116 111/117/127 110/116/126
f 101/107/118 102/108/117 113/119/128 112/118/129
f 102/108/117 103/109/119 114/120/130 113/119/128
f 103/109/119 104/110/120 115/121/131 114/120/130
f 104/110/120 105/111/121 116/122/132 115/121/131
f 105/111/121 106/112/122 117/123/133 116/122/132
f 106/112/122 107/113/123 118/124/134 117/123/133
f 107/113/123 108/114/124 119/125/135 118/124/134
f 108/114/124 109/115/125 120/126/136 119/125/135
f 109/115/125 110/116/126 121/127/137 120/126/136
f 110/116/126 111/117/127 122/128/138 121/127/137
f 112/118/129 113/119/128 124/130/139 123/129/140
f 113/119/128 114/120/130 125/131/141 124/130/139
f 114/120/130 115/121/131 126/132/142 125/131/141
f 115/121/131 116/122/132 127/133/143 126/132/142
f 116/122/132 117/123/133 128/134/144 127/133/143
f 117/123/133 118/124/134 129/135/145 128/134/144
f 118/124/134 119/125/135 130/136/146 129/135/145
f 119/125/135 120/126/136 131/137/147 130/136/146
f 120/126/136 121/127/137 132/138/148 131/137/147
f 121/127/137 122/128/138 133/139/149 132/138/148
g default
v 10.000549 -31.519965 -87.747061
v 10.000549 -23.906511 -87.747061
v 10.000549 -31.519965 -95.360516
v 10.000549 -23.906511 -95.360516
vt 0.000000 0.000000
vt 1.000000 0.000000
vt 0.000000 1.000000
vt 1.000000 1.000000
vn -1.000000 0.000000 0.000000
vn -1.000000 0.000000 0.000000
vn -1.000000 0.000000 0.000000
vn -1.000000 0.000000 0.000000
s off
g pPlane3
usemtl lambert5SG
f 134/140/150 135/141/151 137/143/152 136/142/153
g default
v 9.494163 -43.246285 -102.315261
v -20.014084 -43.246285 -104.674825
v -7.303402 -43.246285 -77.940153
v 9.494163 -9.064339 -102.315261
v -20.014084 -9.064339 -104.674825
v -7.303402 -9.064339 -77.940153
v -5.941108 -43.246285 -94.976747
v -5.941108 -9.064339 -94.976747
vt 0.421875 0.020934
vt 0.421875 0.291566
vt 0.656250 0.156250
vt 0.375000 0.312500
vt 0.458333 0.312500
vt 0.541667 0.312500
vt 0.625000 0.312500
vt 0.375000 0.688440
vt 0.458333 0.688440
vt 0.541667 0.688440
vt 0.625000 0.688440
vt 0.421875 0.708434
vt 0.421875 0.979066
vt 0.656250 0.843750
vt 0.500000 0.150000
vt 0.500000 0.837500
vn 0.079708 0.000000 -0.996818
vn 0.079708 0.000000 -0.996818
vn 0.079708 0.000000 -0.996818
vn 0.079708 0.000000 -0.996818
vn -0.903124 0.000000 0.429380
vn -0.903124 0.000000 0.429380
vn -0.903124 0.000000 0.429380
vn -0.903124 0.000000 0.429380
vn 0.823416 0.000000 0.567439
vn 0.823416 0.000000 0.567439
vn 0.823416 0.000000 0.567439
vn 0.823416 0.000000 0.567439
vn -0.000000 -1.000000 -0.000000
vn -0.000000 -1.000000 -0.000000
vn -0.000000 -1.000000 -0.000000
vn -0.000000 -1.000000 -0.000000
vn 0.000000 1.000000 0.000000
vn -0.000000 1.000000 -0.000000
vn -0.000000 1.000000 -0.000000
vn -0.000000 1.000000 -0.000000
s off
g pCylinder1
usemtl lambert6SG
f 138/147/154 139/148/155 142/152/156 141/151/157
f 139/148/158 140/149/159 143/153/160 142/152/161
f 140/149/162 138/150/163 141/154/164 143/153/165
s 1
f 139/145/166 138/144/167 144/158/168
f 140/146/169 139/145/166 144/158/168
f 138/144/167 140/146/169 144/158/168
s 2
f 141/156/170 142/155/171 145/159/172
f 142/155/171 143/157/173 145/159/172
f 143/157/173 141/156/170 145/159/172
