# This file uses centimeters as units for non-parametric coordinates.

mtllib test_prismC.mtl
g default
v -289.348154 -44.982425 432.517579
v 359.389728 -44.982425 432.517579
v -289.348154 163.807076 432.517579
v 359.389728 163.807076 432.517579
v -289.348154 163.807076 -121.096125
v 359.389728 163.807076 -121.096125
v -289.348154 -44.982425 -121.096125
v 359.389728 -44.982425 -121.096125
v 36.149267 163.807076 432.517579
v 36.149267 163.807076 -121.096125
v 36.149267 -44.982425 -121.096125
v 36.149267 -44.982425 432.517579
v 31.039318 163.807076 432.517579
v 31.039318 163.807076 -121.096125
v 31.039318 -44.982425 -121.096125
v 31.039262 -44.982425 432.517579
v -289.348109 -18.154537 432.517579
v -289.348154 -18.154482 -121.096125
v 31.039318 -18.154471 -121.096125
v 36.149267 -18.154471 -121.096125
v 359.389684 -18.154537 -121.096114
v 359.389728 -18.154482 432.517579
v 36.149267 -18.154537 432.517579
v 31.039262 -18.154537 432.517579
v 31.039318 -18.154471 -166.516989
v 36.149267 -18.154471 -166.516989
v 31.039318 -44.982425 -166.516989
v 36.149267 -44.982425 -166.516989
vt 0.375000 0.000000
vt 0.375000 0.250000
vt 0.625000 0.250000
vt 0.625000 0.000000
vt 0.375000 0.500000
vt 0.625000 0.500000
vt 0.375000 0.750000
vt 0.625000 0.750000
vt 0.375000 1.000000
vt 0.625000 1.000000
vt 0.875000 0.250000
vt 0.875000 0.000000
vt 0.125000 0.000000
vt 0.125000 0.250000
vt 0.594800 0.250000
vt 0.594800 0.500000
vt 0.594800 0.750000
vt 0.594800 0.000000
vt 0.594800 1.000000
vt 0.587396 0.250000
vt 0.587396 0.500000
vt 0.587396 0.750000
vt 0.587396 0.000000
vt 0.587396 1.000000
vt 0.375000 0.001314
vt 0.375000 0.748686
vt 0.125000 0.001314
vt 0.587396 0.748686
vt 0.594800 0.748686
vt 0.625000 0.748686
vt 0.875000 0.001314
vt 0.625000 0.001314
vt 0.594800 0.001314
vt 0.587396 0.001314
vt 0.594800 0.748686
vt 0.587396 0.748686
vt 0.587396 0.750000
vt 0.594800 0.750000
vn 0.000000 0.000000 -1.000000
vn 0.000000 0.000000 -1.000000
vn 0.000000 0.000000 -1.000000
vn 0.000000 0.000000 -1.000000
vn 0.000000 -1.000000 0.000000
vn 0.000000 -1.000000 0.000000
vn 0.000000 -1.000000 0.000000
vn 0.000000 -1.000000 0.000000
vn -0.000000 0.000000 1.000000
vn -0.000000 0.000000 1.000000
vn -0.000000 -0.000000 1.000000
vn 0.000000 0.000000 1.000000
vn 0.000000 1.000000 0.000000
vn 0.000000 1.000000 0.000000
vn 0.000000 1.000000 0.000000
vn 0.000000 1.000000 0.000000
vn -1.000000 -0.000000 0.000000
vn -1.000000 -0.000000 0.000000
vn -1.000000 0.000000 0.000000
vn -1.000000 0.000000 0.000000
vn 1.000000 -0.000000 -0.000000
vn 1.000000 0.000000 -0.000000
vn 1.000000 0.000000 0.000000
vn 1.000000 0.000000 0.000000
vn 0.000000 -1.000000 0.000000
vn 0.000000 -1.000000 0.000000
vn 0.000000 0.000000 1.000000
vn 0.000000 0.000000 1.000000
vn 0.000000 1.000000 0.000000
vn 0.000000 1.000000 0.000000
vn 0.000000 0.000000 -1.000000
vn 0.000000 0.000000 -1.000000
vn 0.000000 -1.000000 0.000000
vn 0.000000 -1.000000 0.000000
vn 0.000000 0.000000 1.000000
vn 0.000000 0.000000 1.000000
vn 0.000000 1.000000 0.000000
vn 0.000000 1.000000 0.000000
vn 0.000000 0.000000 -1.000000
vn 0.000000 0.000000 -1.000000
vn 1.000000 0.000000 0.000000
vn 1.000000 0.000000 0.000000
vn 0.000000 0.000000 1.000000
vn 0.000000 0.000000 1.000000
vn -0.000000 -0.000000 1.000000
vn 0.000000 0.000000 1.000000
vn -1.000000 0.000000 0.000000
vn -1.000000 0.000000 0.000000
vn 0.000000 0.000000 -1.000000
vn 0.000000 0.000000 -1.000000
vn 0.000000 0.000000 -1.000000
vn 0.000000 0.000000 -1.000000
vn 0.000000 -1.000000 0.000000
vn 0.000000 -1.000000 0.000000
vn 0.000000 -1.000000 0.000000
vn 0.000000 -1.000000 0.000000
vn 1.000000 0.000000 0.000000
vn 1.000000 0.000000 0.000000
vn 1.000000 0.000000 0.000000
vn 1.000000 0.000000 0.000000
vn 0.000000 1.000000 0.000000
vn 0.000000 1.000000 0.000000
vn -1.000000 0.000000 0.000000
vn -1.000000 0.000000 0.000000
vn -1.000000 0.000000 0.000000
vn -1.000000 0.000000 0.000000
s 1
g test_prism_pCube1
usemtl test_prism_initialShadingGroup
f 22/32/1 23/33/2 9/15/3 4/3/4
s 2
f 9/15/5 10/16/6 6/6/7 4/3/8
s 3
f 10/16/9 20/29/10 21/30/11 6/6/12
s 4
f 11/17/13 12/19/14 2/10/15 8/8/16
s 5
f 21/31/17 22/32/18 4/3/19 6/11/20
s 6
f 17/25/21 18/27/22 5/14/23 3/2/24
s 2
f 13/20/25 14/21/26 10/16/6 9/15/5
s 3
f 14/21/27 19/28/28 20/29/10 10/16/9
s 4
f 15/22/29 16/24/30 12/19/14 11/17/13
s 1
f 23/33/2 24/34/31 13/20/32 9/15/3
s 2
f 3/2/33 5/5/34 14/21/26 13/20/25
s 3
f 5/5/35 18/26/36 19/28/28 14/21/27
s 4
f 7/7/37 1/9/38 16/24/30 15/22/29
s 1
f 24/34/31 17/25/39 3/2/40 13/20/32
s 6
f 7/13/41 18/27/22 17/25/21 1/1/42
s 3
f 19/28/28 18/26/36 7/7/43 15/22/44
f 21/30/11 20/29/10 11/17/45 8/8/46
s 5
f 2/4/47 22/32/18 21/31/17 8/12/48
s 1
f 12/18/49 23/33/2 22/32/1 2/4/50
f 16/23/51 24/34/31 23/33/2 12/18/49
f 1/1/52 17/25/39 24/34/31 16/23/51
s off
f 20/29/53 19/28/54 25/36/55 26/35/56
f 19/28/57 15/22/58 27/37/59 25/36/60
s 4
f 15/22/29 11/17/13 28/38/61 27/37/62
s off
f 11/17/63 20/29/64 26/35/65 28/38/66
g default
v -16.780940 161.575994 189.767602
v 65.794189 161.575994 189.767602
v -16.780940 161.575994 107.192473
v 65.794189 161.575994 107.192473
vt 0.000000 0.000000
vt 0.000000 1.000000
vt 1.000000 1.000000
vt 1.000000 0.000000
vn 0.000000 -1.000000 0.000000
vn 0.000000 -1.000000 0.000000
vn 0.000000 -1.000000 0.000000
vn 0.000000 -1.000000 0.000000
s off
g pPlane1
usemtl test_prism_lambert2SG
f 29/39/67 31/40/68 32/41/69 30/42/70
g default
v 79.060027 -62.476293 -187.895452
v 79.060027 19.623832 -187.895452
v -3.040140 -62.476293 -187.895452
v -3.040140 19.623832 -187.895452
vt 0.000000 0.000000
vt 1.000000 0.000000
vt 1.000000 1.000000
vt 0.000000 1.000000
vn -0.000000 0.000000 1.000000
vn -0.000000 0.000000 1.000000
vn -0.000000 0.000000 1.000000
vn -0.000000 0.000000 1.000000
s off
g pPlane3
usemtl lambert5SG
f 33/43/71 34/44/72 36/45/73 35/46/74
g default
v 52.066306 -46.657498 -50.248060
v 23.353842 -46.657498 -86.709533
v 6.133516 -46.657498 -43.613072
v 52.066306 6.931610 -50.248060
v 23.353842 6.931610 -86.709533
v 6.133516 6.931610 -43.613072
v 27.184551 -46.657498 -60.190219
v 27.184551 6.931610 -60.190219
vt 0.375000 0.312500
vt 0.458333 0.312500
vt 0.458333 0.688440
vt 0.375000 0.688440
vt 0.541667 0.312500
vt 0.541667 0.688440
vt 0.625000 0.312500
vt 0.625000 0.688440
vt 0.421875 0.291566
vt 0.421875 0.020934
vt 0.500000 0.150000
vt 0.656250 0.156250
vt 0.421875 0.979066
vt 0.421875 0.708434
vt 0.500000 0.837500
vt 0.656250 0.843750
vn 0.785646 0.000000 -0.618676
vn 0.785646 0.000000 -0.618676
vn 0.785646 0.000000 -0.618676
vn 0.785646 0.000000 -0.618676
vn -0.928612 0.000000 -0.371051
vn -0.928612 0.000000 -0.371051
vn -0.928612 0.000000 -0.371051
vn -0.928612 0.000000 -0.371051
vn 0.142966 0.000000 0.989728
vn 0.142966 0.000000 0.989728
vn 0.142966 0.000000 0.989728
vn 0.142966 0.000000 0.989728
vn 0.000000 -1.000000 0.000000
vn 0.000000 -1.000000 0.000000
vn 0.000000 -1.000000 0.000000
vn 0.000000 -1.000000 0.000000
vn 0.000000 -1.000000 0.000000
vn 0.000000 -1.000000 0.000000
vn 0.000000 -1.000000 0.000000
vn 0.000000 -1.000000 0.000000
vn 0.000000 -1.000000 0.000000
vn 0.000000 1.000000 0.000000
vn 0.000000 1.000000 -0.000000
vn 0.000000 1.000000 -0.000000
vn 0.000000 1.000000 -0.000000
vn 0.000000 1.000000 -0.000000
vn 0.000000 1.000000 -0.000000
vn 0.000000 1.000000 -0.000000
vn 0.000000 1.000000 0.000000
vn 0.000000 1.000000 -0.000000
s off
g pCylinder1
usemtl lambert6SG
f 37/47/75 38/48/76 41/49/77 40/50/78
f 38/48/79 39/51/80 42/52/81 41/49/82
f 39/51/83 37/53/84 40/54/85 42/52/86
f 38/55/87 37/56/88 43/57/89
f 39/58/90 38/55/91 43/57/92
f 37/56/93 39/58/94 43/57/95
f 40/59/96 41/60/97 44/61/98
f 41/60/99 42/62/100 44/61/101
f 42/62/102 40/59/103 44/61/104
